<svg xmlns="http://www.w3.org/2000/svg" fill="none" viewBox="0 0 128 128">
<path xmlns="http://www.w3.org/2000/svg" fill="url(#345jqF9_0hbE7sNJemsqha)" d="M41.121,34.05l-9.343-9.343a1,1,0,0,1,0-1.414l9.339-9.339a1,1,0,0,0,0-1.414L35.46,6.883a1,1,0,0,0-1.414,0l-9.339,9.339a1,1,0,0,1-1.414,0L13.95,6.879a1,1,0,0,0-1.415,0L6.879,12.535a1,1,0,0,0,0,1.415l9.343,9.343a1,1,0,0,1,0,1.414L6.88,34.049a1,1,0,0,0,0,1.415l5.657,5.656a1,1,0,0,0,1.414,0l9.342-9.342a1,1,0,0,1,1.414,0l9.343,9.344a1,1,0,0,0,1.415,0l5.656-5.657A1,1,0,0,0,41.121,34.05Z" data-name="math"/>

</svg>
